<?xml version="1.0" encoding="UTF-8" standalone="no"?>
<svg
   viewBox="0 0 64 64"
   width="64"
   height="64"
   version="1.1"
   id="svg15"
   sodipodi:docname="favicon.svg"
   xml:space="preserve"
   inkscape:version="1.2.2 (b0a8486541, 2022-12-01)"
   xmlns:inkscape="http://www.inkscape.org/namespaces/inkscape"
   xmlns:sodipodi="http://sodipodi.sourceforge.net/DTD/sodipodi-0.dtd"
   xmlns="http://www.w3.org/2000/svg"
   xmlns:svg="http://www.w3.org/2000/svg"><sodipodi:namedview
     id="namedview17"
     pagecolor="#ffffff"
     bordercolor="#000000"
     borderopacity="0.25"
     inkscape:showpageshadow="2"
     inkscape:pageopacity="0.0"
     inkscape:pagecheckerboard="0"
     inkscape:deskcolor="#d1d1d1"
     showgrid="false"
     inkscape:zoom="6.842948"
     inkscape:cx="29.811713"
     inkscape:cy="31.638411"
     inkscape:window-width="1366"
     inkscape:window-height="699"
     inkscape:window-x="0"
     inkscape:window-y="0"
     inkscape:window-maximized="1"
     inkscape:current-layer="svg15" /><defs
     id="defs7"><linearGradient
       id="g"
       x1="0"
       y1="0"
       x2="1"
       y2="1"><stop
         offset="0%"
         stop-color="#c9a84c"
         id="stop2" /><stop
         offset="100%"
         stop-color="#8a6d1f"
         id="stop4" /></linearGradient></defs><rect
     style="fill:#b3bfd6;fill-opacity:1;stroke:none;stroke-width:0.202821;stroke-linecap:round;stroke-linejoin:round;paint-order:stroke markers fill"
     id="rect478-6-5"
     width="63.956051"
     height="63.859802"
     x="0.088262938"
     y="0.15399504"
     ry="13.536645"
     rx="13.28732" /><path
     style="fill:#001a4a;fill-opacity:1;stroke-width:0.0162615"
     d="m 38.812893,54.520684 c -0.04941,-0.02117 -0.111557,-0.07342 -0.112964,-0.09461 -9.88e-4,-0.01413 -0.07766,0 -0.207288,0.03812 -0.112953,0.03107 -0.217454,0.05506 -0.231857,0.05225 -0.01413,0 -0.0353,-0.02824 -0.0466,-0.05648 -0.01694,-0.04095 -0.01553,-0.05931 0,-0.09601 0.01413,-0.02401 0.221549,-0.34849 0.464984,-0.719716 0.751771,-1.146718 1.128503,-1.773382 1.454967,-2.419955 0.553943,-1.097296 0.840447,-1.969231 0.987863,-3.006234 0.189072,-1.329295 0.09462,-2.464293 -0.307119,-3.669187 C 40.634987,44.00862 40.438288,43.582184 40.142467,43.09164 39.486716,42.003664 38.645281,41.027238 37.369926,39.874307 36.121259,38.745239 35.47864,38.078473 35.114897,37.534132 34.947429,37.283495 34.666999,36.68719 34.63198,36.507156 c -0.05083,-0.259957 0.03107,-0.399749 0.381815,-0.653211 0.708421,-0.512006 1.941272,-1.630342 4.038012,-3.662691 1.846525,-1.789903 4.790628,-4.736831 5.38651,-5.391453 1.703203,-1.871658 2.913462,-4.037305 3.533914,-6.324104 0.216465,-0.79752 0.364305,-1.660843 0.403985,-2.357966 0.01412,-0.155183 0.05366,-0.465832 0.210534,-1.448613 0.217595,-1.364736 0.224939,-1.400885 0.382239,-1.84963 0.118609,-0.340585 0.289327,-0.679757 0.390994,-0.780153 0.135557,-0.134144 0.345668,-0.14417 0.659989,-0.03107 1.363888,0.488707 4.479697,3.420244 6.585474,6.196032 0.839457,1.106617 1.469227,2.153221 1.964994,3.266191 0.499015,1.120171 0.868264,2.340597 1.072445,3.544786 0.272664,1.60789 0.295115,3.559894 0.06354,5.527009 -0.04941,0.414291 -0.228326,1.521755 -0.31206,1.924186 -0.732709,3.524028 -2.243591,6.938908 -4.411356,9.97084 -0.953127,1.333107 -2.054376,2.611569 -3.223829,3.742755 -2.405692,2.3269 -5.167927,4.090963 -8.029285,5.127966 -0.882666,0.319826 -1.452847,0.481222 -2.852744,0.807121 -0.378992,0.08755 -0.875748,0.206865 -1.103934,0.263487 -0.228186,0.05648 -0.477128,0.11579 -0.553096,0.13132 -0.144452,0.02966 -0.353293,0.03672 -0.409632,0.01412 z M 15.560261,54.282048 C 12.736039,54.250984 10.297163,54.160613 9.035505,54.038754 8.2594478,53.963917 7.9047431,53.873264 7.3822882,53.615848 6.685164,53.27244 6.3205752,52.882152 5.9856393,52.120922 5.8500834,51.814226 5.7143862,51.320294 5.6713191,50.982675 5.4950964,49.599158 5.6882634,46.218311 6.1269845,43.01552 c 0.1016668,-0.740473 0.441545,-2.777483 0.5120057,-3.066527 0.1745283,-0.715198 0.3222278,-0.869818 0.700372,-0.733273 0.072014,0.02542 0.1918963,0.08472 0.2670168,0.129908 1.5415244,0.935617 11.10951,8.053995 15.028911,11.181242 0.536574,0.428129 1.846665,1.511447 1.983068,1.6398 0.10872,0.101664 0.359364,0.345386 0.389018,0.377298 0.01694,0.01836 0.05506,0.05225 0.08613,0.07484 0.03107,0.02401 0.06919,0.05789 0.08613,0.07625 0.127084,0.139792 0.34807,0.345244 0.565242,0.526266 0.141345,0.117194 0.256143,0.21915 0.255155,0.225221 -0.0011,0 -0.07061,0.02682 -0.155185,0.0466 -0.142616,0.03247 -0.153769,0.03812 -0.160265,0.07907 0,0.02682 -0.02117,0.05225 -0.04237,0.06638 -0.01978,0.01413 -0.06354,0.05083 -0.09743,0.08472 -0.03389,0.03389 -0.09036,0.07907 -0.125671,0.101663 -0.394384,0.242447 -1.687671,0.360211 -4.758435,0.433213 -0.779305,0.01836 -4.185006,0.0353 -5.099726,0.02543 z m 17.422177,-0.03812 c -1.169734,-0.08755 -2.6528,-0.704746 -4.563715,-1.896932 C 26.899085,51.398667 25.193765,50.20154 22.746981,48.36518 20.485739,46.668192 18.776607,45.332261 15.692429,42.850881 10.61346,38.764573 9.3092997,37.609101 8.6397101,36.602316 8.5182748,36.419033 8.2971492,35.979183 8.2108735,35.748032 8.0611974,35.34673 7.9907365,34.792504 8.0024564,34.110346 c 0.01412,-0.724093 0.1496762,-1.668183 0.3627532,-2.49465 0.1887897,-0.732709 0.4613136,-1.493374 0.7329901,-2.046893 0.1844124,-0.375604 0.5112997,-0.806417 0.9631523,-1.269426 0.752335,-0.771256 1.557763,-1.366854 2.259265,-1.671149 1.427996,-0.619322 2.955259,-0.208417 5.704643,1.534887 1.341155,0.850332 2.795134,1.882392 5.319578,3.775373 5.59041,4.192489 10.673896,8.29376 13.287583,10.72035 1.577813,1.464993 2.065673,2.127804 2.408799,3.273252 0.338607,1.130056 0.375038,2.007074 0.117193,2.821256 -0.261651,0.825762 -0.878289,1.885498 -1.69134,2.906402 -0.205454,0.257982 -0.661401,0.76575 -0.870242,0.969084 -0.594609,0.579219 -1.286368,1.059877 -1.90103,1.320964 -0.538411,0.22875 -1.161967,0.335783 -1.71337,0.294127 z m 0.111558,-20.27902 C 32.180682,33.857592 31.494007,33.638302 30.320883,33.079699 29.076028,32.486782 28.014033,31.890196 27.145346,31.295586 24.461057,29.458097 15.570144,22.790161 12.626888,20.40706 11.809881,19.74552 11.67955,19.605163 11.368054,19.051221 11.022387,18.436559 10.650738,17.599219 10.488777,17.069844 10.358869,16.645526 10.298434,16.285456 10.302811,15.96337 c 0,-0.178905 0.231998,-1.60083 0.306695,-1.900041 0.324205,-1.297807 0.727201,-2.206032 1.327319,-2.991266 0.421918,-0.551966 0.977555,-1.022741 1.577389,-1.3363547 0.526127,-0.2750667 1.280439,-0.5060755 1.730456,-0.5299403 1.249373,-0.066377 3.396521,1.112266 8.757757,4.806163 1.751071,1.206447 3.254046,2.265054 4.781309,3.367432 2.172001,1.56779 4.592237,3.426599 6.049746,4.646461 1.014833,0.849342 2.006085,1.745564 2.32916,2.105776 0.04941,0.05506 0.115789,0.127084 0.14657,0.16083 0.03107,0.03389 0.06354,0.07061 0.07061,0.08048 0.01413,0.01413 0.07626,0.08613 0.151654,0.168174 0.07484,0.0819 0.171703,0.190908 0.213641,0.242448 0.121435,0.148828 0.227621,0.283114 0.23341,0.29441 0,0 0.05083,0.06637 0.104489,0.134144 0.13838,0.172551 0.318274,0.465549 0.40215,0.65561 0.161961,0.366989 0.223808,0.907518 0.183,1.599135 -0.01978,0.32364 -0.141628,1.078941 -0.230445,1.420372 -0.382522,1.471911 -0.975015,2.683159 -1.753472,3.585029 -0.539399,0.624968 -1.22325,1.093907 -1.917974,1.315316 -0.427142,0.135555 -0.659987,0.171281 -1.181596,0.17834 -0.236233,0 -0.4575,0 -0.491672,0 z m 8.305198,-6.573895 c -0.12426,-0.04518 -0.16761,-0.07061 -0.233269,-0.141628 -0.143746,-0.154334 -0.255862,-0.410338 -0.389019,-0.888879 -0.09743,-0.351598 -0.198532,-0.64855 -0.290032,-0.854989 -0.38831,-0.876454 -1.048439,-1.717889 -2.274938,-2.899908 C 36.785351,21.230846 34.891664,19.644984 31.02112,16.584245 27.819461,14.052316 25.940459,12.49879 24.712407,11.368168 24.227089,10.921258 24.113561,10.800105 24.005539,10.613291 23.954707,10.524324 23.869984,10.402473 23.819715,10.34218 23.599436,10.08067 23.56456,9.9723664 23.653942,9.8276333 23.866031,9.4843657 25.37776,9.2736897 28.57349,9.1419458 c 0.753889,-0.031066 4.055803,-0.043763 5.007941,-0.018358 6.119924,0.1582887 9.220906,0.7120916 10.927781,1.9517222 0.543918,0.394947 0.912178,0.79978 1.247114,1.370668 0.264192,0.450581 0.431095,0.848636 0.590092,1.408228 0.336349,1.182866 0.418247,2.060025 0.32011,3.426597 -0.02966,0.411751 -0.187944,1.483772 -0.289046,1.956946 -0.349197,1.634013 -0.909636,3.222559 -1.61255,4.570492 -0.516382,0.990124 -1.13655,1.859799 -2.020629,2.833401 -0.387888,0.427283 -0.520902,0.552672 -0.716187,0.675379 -0.228892,0.143885 -0.385628,0.162526 -0.628922,0.07484 z"
     id="path397-3-7-3" /><g
     inkscape:label="Layer 1"
     id="layer1"
     transform="matrix(3.7795276,0,0,3.7795276,-5145.1388,-754.42179)" /></svg>
