<?xml version="1.0" encoding="UTF-8" standalone="no"?>
<svg
   viewBox="0 0 1600 900"
   width="1600"
   height="900"
   preserveAspectRatio="xMidYMid slice"
   version="1.1"
   id="svg40"
   sodipodi:docname="hero-bg.svg"
   xml:space="preserve"
   inkscape:version="1.2.2 (b0a8486541, 2022-12-01)"
   xmlns:inkscape="http://www.inkscape.org/namespaces/inkscape"
   xmlns:sodipodi="http://sodipodi.sourceforge.net/DTD/sodipodi-0.dtd"
   xmlns="http://www.w3.org/2000/svg"
   xmlns:svg="http://www.w3.org/2000/svg"><sodipodi:namedview
     id="namedview42"
     pagecolor="#ffffff"
     bordercolor="#000000"
     borderopacity="0.25"
     inkscape:showpageshadow="2"
     inkscape:pageopacity="0.0"
     inkscape:pagecheckerboard="0"
     inkscape:deskcolor="#d1d1d1"
     showgrid="false"
     inkscape:zoom="0.388125"
     inkscape:cx="800"
     inkscape:cy="331.0789"
     inkscape:window-width="1366"
     inkscape:window-height="699"
     inkscape:window-x="0"
     inkscape:window-y="0"
     inkscape:window-maximized="1"
     inkscape:current-layer="g26" /><defs
     id="defs14"><linearGradient
       id="sky"
       x1="0"
       y1="0"
       x2="0"
       y2="1"><stop
         offset="0%"
         stop-color="#2a1f12"
         id="stop2" /><stop
         offset="55%"
         stop-color="#3d2a16"
         id="stop4" /><stop
         offset="100%"
         stop-color="#1a130b"
         id="stop6" /></linearGradient><radialGradient
       id="glow"
       cx="50%"
       cy="40%"
       r="60%"><stop
         offset="0"
         stop-color="#c9a84c"
         stop-opacity="0.25"
         id="stop9"
         style="stop-color:#b3bfd6;stop-opacity:1;" /><stop
         offset="1"
         stop-color="#c9a84c"
         stop-opacity="0"
         id="stop11"
         style="stop-color:#001a4a;stop-opacity:1;" /></radialGradient></defs><rect
     width="1600"
     height="900"
     fill="url(#sky)"
     id="rect16" /><rect
     width="1600"
     height="900"
     fill="url(#glow)"
     id="rect18" /><g
     fill="#000"
     opacity="0.35"
     id="g26"
     style="fill:#001a4a;fill-opacity:1"><circle
       cx="200"
       cy="700"
       r="160"
       id="circle20"
       style="fill:#001a4a;fill-opacity:1" /><circle
       cx="1400"
       cy="720"
       r="200"
       id="circle22"
       style="fill:#001a4a;fill-opacity:1" /><rect
       x="0"
       y="780"
       width="1600"
       height="120"
       id="rect24"
       style="fill:#001a4a;fill-opacity:1" /></g><g
     fill="#c9a84c"
     opacity="0.12"
     id="g36"><circle
       cx="1200"
       cy="180"
       r="6"
       id="circle28" /><circle
       cx="900"
       cy="120"
       r="4"
       id="circle30" /><circle
       cx="500"
       cy="200"
       r="5"
       id="circle32" /><circle
       cx="300"
       cy="150"
       r="3"
       id="circle34" /></g><g
     inkscape:label="Layer 1"
     id="layer1"
     transform="matrix(3.7795276,0,0,3.7795276,-4166.2469,-842.29342)"><g
       id="g6804"
       transform="matrix(0.68387084,0,0,0.68387084,402.55079,115.0308)"><rect
         style="fill:#b3bfd6;fill-opacity:1;stroke:#000102;stroke-width:0.57746;stroke-linecap:round;stroke-linejoin:round;paint-order:stroke markers fill"
         id="rect478-6-5"
         width="182.09193"
         height="181.81789"
         x="1238.5114"
         y="165.02722"
         ry="38.540745"
         rx="37.830883" /><path
         style="fill:#001a4a;fill-opacity:1;stroke-width:0.046299"
         d="m 1348.7661,319.817 c -0.1368,0 -0.3176,-0.2127 -0.3222,-0.2735 0,0 -0.2218,0 -0.5895,0.152 -0.3221,0.1519 -0.6184,0.1519 -0.661,0.1519 -0.046,-0.01 -0.1063,-0.1519 -0.1367,-0.1671 -0.046,-0.152 -0.046,-0.1672 0.01,-0.2735 0.03,0 0.6306,-0.9877 1.3234,-2.0498 2.1402,-3.2638 3.2131,-5.0492 4.1424,-6.8893 1.5772,-3.124 2.393,-5.6069 2.8127,-8.5592 0.5379,-3.785 0.2675,-7.0169 -0.8737,-10.4479 -0.512,-1.5377 -1.0727,-2.7518 -1.9144,-4.1482 -1.8672,-3.0982 -4.2628,-5.8773 -7.8936,-9.1609 -3.5553,-3.2137 -5.3849,-5.113 -6.4206,-6.6629 -0.4771,-0.7142 -1.2748,-2.4099 -1.3751,-2.9235 -0.1368,-0.7445 0.091,-1.1396 1.0864,-1.8598 2.017,-1.4587 5.5274,-4.642 11.4968,-10.4282 5.2574,-5.0963 13.6399,-13.4853 15.3362,-15.3497 4.8495,-5.3288 8.2952,-11.4948 10.0617,-18.0058 0.6169,-2.2701 1.0378,-4.7286 1.1503,-6.713 0.03,-0.4407 0.1534,-1.322 0.6001,-4.1254 0.62,-3.8853 0.6413,-3.9886 1.088,-5.2665 0.3404,-0.9725 0.8235,-1.9343 1.1138,-2.22 0.3874,-0.3798 0.9846,-0.4102 1.8789,-0.1519 3.8834,1.3827 12.7545,9.7368 18.7501,17.6396 2.3898,3.1514 4.1828,6.1311 5.5945,9.2992 1.4207,3.1893 2.4721,6.6644 3.0534,10.0938 0.7765,4.5767 0.8403,10.1349 0.1824,15.7357 -0.1368,1.1852 -0.6504,4.332 -0.8889,5.4777 -2.0863,10.0346 -6.3878,19.7563 -12.5597,28.3884 -2.7138,3.7956 -5.8492,7.4363 -9.179,10.6561 -6.8492,6.6249 -14.7139,11.6483 -22.8605,14.6006 -2.5128,0.9117 -4.1362,1.3675 -8.1221,2.2975 -1.0788,0.2583 -2.4936,0.5926 -3.1432,0.7445 -0.6503,0.1671 -1.3584,0.3343 -1.5748,0.3799 -0.4117,0.1519 -1.0058,0.1519 -1.1669,0 z m -66.2036,-0.6837 c -8.041,-0.152 -14.9847,-0.3495 -18.5771,-0.699 -2.2096,-0.2127 -3.2193,-0.471 -4.7069,-1.2004 -1.9847,-0.9724 -3.0229,-2.0893 -3.9766,-4.2575 -0.3844,-0.8661 -0.7719,-2.2793 -0.8949,-3.2396 -0.5015,-3.94 0.046,-13.5658 1.2976,-22.6842 0.2887,-2.1075 1.2566,-7.9074 1.4572,-8.7309 0.4968,-2.0361 0.9177,-2.4768 1.994,-2.0878 0.2036,0 0.5455,0.2431 0.7597,0.3647 4.3887,2.6636 31.63,22.9304 42.7892,31.8345 1.5278,1.2156 5.2577,4.3032 5.6461,4.6678 0.3099,0.2887 1.0226,0.9877 1.1077,1.0789 0.046,0 0.158,0.1519 0.2446,0.2127 0.091,0 0.196,0.1671 0.2446,0.2127 0.3617,0.3951 0.9907,0.9877 1.6093,1.5043 0.4027,0.3343 0.7294,0.623 0.7263,0.6382 0,0 -0.2021,0 -0.4421,0.1519 -0.4057,0.152 -0.4377,0.152 -0.4559,0.228 -0.012,0 -0.061,0.1519 -0.1215,0.1823 -0.061,0 -0.1793,0.1519 -0.2781,0.2431 -0.091,0.152 -0.2583,0.2279 -0.3571,0.2887 -1.1229,0.6838 -4.8052,1.0181 -13.5481,1.2308 -2.2186,0 -11.9151,0.1519 -14.5193,0 z m 49.6035,-0.152 c -3.3304,-0.2583 -7.5532,-2.0057 -12.9937,-5.4002 -4.3267,-2.7001 -9.1819,-6.1083 -16.1482,-11.3368 -6.438,-4.8319 -11.3041,-8.6352 -20.0853,-15.7007 -14.4607,-11.6331 -18.1736,-14.9228 -20.0801,-17.7901 -0.3464,-0.5166 -0.9755,-1.7747 -1.2216,-2.4326 -0.4255,-1.1396 -0.6276,-2.7199 -0.5941,-4.6618 0.03,-2.0619 0.4269,-4.7499 1.0332,-7.1035 0.5379,-2.0863 1.3128,-4.2515 2.0872,-5.8272 0.5257,-1.0637 1.4556,-2.296 2.742,-3.6149 2.1422,-2.1956 4.4352,-3.8913 6.4324,-4.7574 4.066,-1.7641 8.4141,-0.5926 16.2421,4.37 3.8183,2.4205 7.9581,5.3592 15.1454,10.7487 15.917,11.937 30.3903,23.6142 37.8317,30.5233 4.4924,4.1709 5.8813,6.0581 6.8583,9.3189 0.9634,3.2167 1.0682,5.7148 0.3343,8.032 -0.7445,2.3521 -2.5004,5.3683 -4.8155,8.275 -0.585,0.7294 -1.8831,2.1805 -2.4776,2.7594 -1.6927,1.6486 -3.6626,3.0177 -5.4124,3.7607 -1.533,0.6534 -3.3082,0.9573 -4.8781,0.8357 z m 0.319,-57.737 c -2.6002,-0.3039 -4.5552,-0.9269 -7.8954,-2.5208 -3.5441,-1.6866 -6.568,-3.3854 -9.0412,-5.0796 -7.6427,-5.2301 -32.9562,-24.2159 -41.3361,-31.0004 -2.3261,-1.8841 -2.6971,-2.2837 -3.5842,-3.8609 -0.9846,-1.749 -2.0422,-4.133 -2.5033,-5.6403 -0.3693,-1.2156 -0.5425,-2.2337 -0.5303,-3.1514 0.01,-0.5167 0.661,-4.5569 0.8737,-5.4094 0.9223,-3.6953 2.0703,-6.28 3.7789,-8.5166 1.2004,-1.5712 2.7834,-2.9113 4.491,-3.8048 1.4982,-0.7749 3.6455,-1.4435 4.927,-1.5043 3.5571,-0.1823 9.6703,3.1666 24.9346,13.6844 4.9854,3.4356 9.2647,6.4487 13.613,9.5879 6.1841,4.4627 13.0746,9.755 17.2245,13.2286 2.8891,2.419 5.7117,4.9702 6.6316,5.9958 0.1367,0.152 0.3267,0.3647 0.4163,0.4559 0.091,0.1519 0.1808,0.1975 0.2036,0.2279 0.015,0 0.2158,0.2431 0.4315,0.471 0.2158,0.2279 0.4893,0.547 0.6094,0.6838 0.3449,0.4254 0.6473,0.8053 0.664,0.8357 0.01,0.015 0.1367,0.1823 0.2993,0.3799 0.3951,0.4862 0.9056,1.3219 1.1457,1.8659 0.4604,1.0484 0.6366,2.5831 0.5212,4.5523 -0.061,0.9269 -0.4027,3.0724 -0.6564,4.0449 -1.0895,4.1907 -2.7761,7.6384 -4.9924,10.2063 -1.5358,1.7793 -3.4827,3.1149 -5.461,3.7455 -1.2156,0.3799 -1.8789,0.4862 -3.364,0.5014 -0.6731,0.01 -1.3022,0.01 -1.3994,0 z m 23.6461,-18.7169 c -0.354,-0.152 -0.4771,-0.1975 -0.664,-0.4103 -0.4102,-0.4406 -0.7293,-1.17 -1.1077,-2.5314 -0.278,-1.0029 -0.5652,-1.8462 -0.8251,-2.4342 -1.1046,-2.495 -2.985,-4.8912 -6.477,-8.2568 -4.0616,-3.9142 -9.4533,-8.4286 -20.4731,-17.1428 -9.1157,-7.2084 -14.4654,-11.6315 -17.9619,-14.8513 -1.3812,-1.2764 -1.705,-1.6167 -2.0127,-2.1486 -0.1519,-0.2583 -0.3844,-0.6077 -0.5288,-0.7749 -0.6275,-0.7445 -0.7263,-1.0484 -0.4725,-1.4739 0.6032,-0.9724 4.9077,-1.5772 14.0065,-1.951 2.1464,-0.1519 11.5474,-0.1519 14.2584,0 17.4242,0.4559 26.2531,2.0285 31.1128,5.5567 1.5487,1.1245 2.5974,2.2777 3.5506,3.9036 0.7521,1.2763 1.2277,2.4159 1.6804,4.0083 0.9572,3.3687 1.1912,5.8652 0.9117,9.7566 -0.091,1.17 -0.5349,4.2241 -0.8221,5.5719 -0.9937,4.6527 -2.5898,9.1746 -4.5911,13.0128 -1.4708,2.8186 -3.236,5.2954 -5.753,8.0669 -1.1047,1.2156 -1.483,1.5742 -2.039,1.9237 -0.6519,0.4102 -1.0986,0.4558 -1.7907,0.2127 z"
         id="path397-3-7-3" /></g></g><text
     x="800"
     y="620"
     font-family="Playfair Display, Georgia, serif"
     font-size="120"
     font-weight="700"
     text-anchor="middle"
     fill="#c9a84c"
     opacity="0.18"
     id="text38"
     style="fill:#b3bfd6;fill-opacity:1;-inkscape-font-specification:'NOS, Normal';font-family:NOS;font-weight:normal;font-style:normal;font-stretch:normal;font-variant:normal;font-size:120px;font-variant-ligatures:normal;font-variant-caps:normal;font-variant-numeric:normal;font-variant-east-asian:normal;text-anchor:middle;opacity:1">DzieRes</text></svg>
