<?xml version="1.0" encoding="UTF-8" standalone="no"?>
<svg
   viewBox="0 0 400 300"
   width="400"
   height="300"
   version="1.1"
   id="svg19"
   sodipodi:docname="food-placeholder.svg"
   xml:space="preserve"
   inkscape:version="1.2.2 (b0a8486541, 2022-12-01)"
   xmlns:inkscape="http://www.inkscape.org/namespaces/inkscape"
   xmlns:sodipodi="http://sodipodi.sourceforge.net/DTD/sodipodi-0.dtd"
   xmlns="http://www.w3.org/2000/svg"
   xmlns:svg="http://www.w3.org/2000/svg"><sodipodi:namedview
     id="namedview21"
     pagecolor="#ffffff"
     bordercolor="#000000"
     borderopacity="0.25"
     inkscape:showpageshadow="2"
     inkscape:pageopacity="0.0"
     inkscape:pagecheckerboard="0"
     inkscape:deskcolor="#d1d1d1"
     showgrid="false"
     inkscape:zoom="1.3768834"
     inkscape:cx="221.15162"
     inkscape:cy="133.27199"
     inkscape:window-width="1366"
     inkscape:window-height="699"
     inkscape:window-x="0"
     inkscape:window-y="0"
     inkscape:window-maximized="1"
     inkscape:current-layer="svg19" /><defs
     id="defs7"><linearGradient
       id="bg"
       x1="0"
       y1="0"
       x2="1"
       y2="1"><stop
         offset="0"
         stop-color="#2b2b3a"
         id="stop2"
         style="stop-color:#a1a1d9;stop-opacity:1;" /><stop
         offset="1"
         stop-color="#15151f"
         id="stop4"
         style="stop-color:#4a4a6f;stop-opacity:1;" /></linearGradient></defs><rect
     width="400"
     height="300"
     fill="url(#bg)"
     id="rect9" /><text
     x="200"
     y="220"
     font-family="Inter, sans-serif"
     font-size="22"
     fill="#c9a84c"
     text-anchor="middle"
     opacity="0.9"
     id="text15"
     style="font-style:normal;font-variant:normal;font-weight:normal;font-stretch:normal;font-size:32px;font-family:NOS;-inkscape-font-specification:'NOS, Normal';font-variant-ligatures:normal;font-variant-caps:normal;font-variant-numeric:normal;font-variant-east-asian:normal;text-anchor:middle;opacity:0.9;fill:#001a4a;fill-opacity:1;stroke:none">DzieRes</text><text
     x="200"
     y="250"
     font-family="Inter, sans-serif"
     font-size="13"
     fill="#9a8a5a"
     text-anchor="middle"
     id="text17"
     style="fill:#b3bfd6;fill-opacity:1;-inkscape-font-specification:'sans-serif, Bold';font-family:sans-serif;font-weight:bold;font-style:normal;font-stretch:normal;font-variant:normal;font-size:18.66666667px;font-variant-ligatures:normal;font-variant-caps:normal;font-variant-numeric:normal;font-variant-east-asian:normal;text-anchor:middle">Culinary Delight</text><g
     inkscape:label="Layer 1"
     id="layer1"
     transform="matrix(3.7795276,0,0,3.7795276,-4723.8048,-721.68456)"><rect
       style="fill:#b3bfd6;fill-opacity:1;stroke:none;stroke-width:0.0931199;stroke-linecap:round;stroke-linejoin:round;paint-order:stroke markers fill"
       id="rect478-6-5"
       width="29.363731"
       height="29.319538"
       x="1288.5753"
       y="209.41809"
       ry="6.2149925"
       rx="6.100522" /><path
       style="fill:#001a4a;fill-opacity:1;stroke-width:0.00746608"
       d="m 1306.3547,234.37915 c -0.024,-0.01 -0.051,-0.0336 -0.051,-0.0436 -5e-4,-0.005 -0.037,8.6e-4 -0.096,0.0172 -0.051,0.0147 -0.1004,0.0252 -0.1053,0.0245 0,-0.001 -0.024,-0.0123 -0.024,-0.026 0,-0.0196 0,-0.0275 9e-4,-0.0441 0,-0.0122 0.1005,-0.16 0.2132,-0.33044 0.3453,-0.52642 0.5182,-0.81418 0.6682,-1.11103 0.2543,-0.50377 0.3857,-0.90415 0.4535,-1.38024 0.086,-0.61031 0.044,-1.13143 -0.1421,-1.68461 -0.083,-0.24804 -0.1739,-0.44384 -0.3087,-0.66907 -0.3011,-0.49949 -0.6875,-0.94776 -1.2729,-1.47714 -0.5734,-0.51834 -0.8684,-0.82452 -1.0355,-1.07445 -0.076,-0.11492 -0.2058,-0.38881 -0.2205,-0.47148 -0.024,-0.11933 0.024,-0.18353 0.1739,-0.29991 0.3254,-0.23498 0.8915,-0.74856 1.8542,-1.68165 0.8478,-0.82177 2.1993,-2.17474 2.473,-2.47531 0.7819,-0.85929 1.3376,-1.85361 1.6226,-2.90355 0.1005,-0.36614 0.1666,-0.76252 0.1862,-1.0826 0,-0.0713 0.024,-0.21391 0.096,-0.66508 0.1004,-0.62658 0.1029,-0.64322 0.1764,-0.84924 0.054,-0.15633 0.1323,-0.31209 0.1789,-0.35818 0.061,-0.0615 0.1592,-0.0662 0.3028,-0.0147 0.6263,0.22444 2.0568,1.57028 3.0237,2.84474 0.3854,0.50801 0.6745,0.98861 0.9021,1.49956 0.2279,0.51429 0.3987,1.0746 0.4923,1.6275 0.125,0.73819 0.1348,1.63445 0.029,2.53755 -0.024,0.19014 -0.1054,0.69869 -0.1446,0.88349 -0.3364,1.61794 -1.0301,3.18577 -2.0251,4.57782 -0.4376,0.61205 -0.9434,1.19907 -1.4802,1.7184 -1.1046,1.06832 -2.3729,1.87828 -3.6865,2.35437 -0.4052,0.14677 -0.6669,0.22077 -1.3099,0.37058 -0.1739,0.0404 -0.4021,0.0948 -0.5067,0.12104 -0.1053,0.026 -0.2181,0.0532 -0.2541,0.0605 -0.066,0.0147 -0.1617,0.0172 -0.1886,0.005 z m -10.6758,-0.10953 c -1.2967,-0.0147 -2.4164,-0.0559 -2.9957,-0.11173 -0.3563,-0.0343 -0.5192,-0.076 -0.7591,-0.19406 -0.32,-0.15755 -0.4873,-0.33687 -0.6412,-0.68642 -0.061,-0.14089 -0.125,-0.36752 -0.1446,-0.52255 -0.081,-0.63518 0,-2.1874 0.2083,-3.65793 0.046,-0.33993 0.2034,-1.27517 0.2352,-1.40788 0.081,-0.32838 0.147,-0.39937 0.3217,-0.33672 0.032,0.0123 0.088,0.0387 0.1225,0.0598 0.7077,0.42956 5.1005,3.69783 6.9,5.13361 0.2465,0.19652 0.8478,0.69392 0.9105,0.75285 0.049,0.047 0.1642,0.15853 0.1789,0.17323 0,0.007 0.024,0.0245 0.039,0.0345 0.024,0.01 0.032,0.0265 0.039,0.0348 0.059,0.064 0.1593,0.15853 0.2595,0.24159 0.064,0.0542 0.1176,0.10071 0.1176,0.1034 -5e-4,0.002 -0.032,0.0123 -0.071,0.0221 -0.066,0.0147 -0.071,0.0172 -0.073,0.036 0,0.0122 0,0.0245 -0.024,0.0301 0,0.005 -0.029,0.0221 -0.044,0.0387 -0.025,0.0147 -0.042,0.0368 -0.059,0.0465 -0.1813,0.11125 -0.7748,0.1654 -2.1846,0.19897 -0.3578,0.007 -1.9215,0.0172 -2.3415,0.0122 z m 7.9989,-0.0171 c -0.5371,-0.0404 -1.218,-0.32356 -2.0952,-0.87097 -0.6978,-0.43534 -1.4807,-0.98499 -2.6042,-1.8281 -1.0381,-0.77914 -1.8227,-1.39254 -3.2387,-2.53179 -2.3319,-1.8761 -2.9308,-2.40659 -3.2381,-2.86886 -0.056,-0.084 -0.1568,-0.28606 -0.196,-0.39221 -0.069,-0.18426 -0.1004,-0.43872 -0.095,-0.75187 0,-0.33247 0.069,-0.7659 0.1666,-1.14538 0.086,-0.33639 0.2107,-0.68565 0.3364,-0.9398 0.086,-0.1725 0.2352,-0.37018 0.4423,-0.58282 0.3455,-0.35404 0.7152,-0.62756 1.0372,-0.76723 0.6557,-0.28435 1.3569,-0.0958 2.6191,0.7047 0.6157,0.39043 1.2834,0.86424 2.4424,1.73337 2.5667,1.92484 4.9005,3.80782 6.1007,4.92196 0.7243,0.6726 0.9482,0.97692 1.1058,1.5028 0.1544,0.51882 0.1715,0.92152 0.054,1.29531 -0.1201,0.37916 -0.4031,0.86568 -0.7765,1.33442 -0.096,0.11835 -0.3036,0.35156 -0.3994,0.44494 -0.2729,0.26588 -0.5907,0.4866 -0.8728,0.60645 -0.2472,0.10511 -0.5336,0.15412 -0.7868,0.13501 z m 0.052,-9.31059 c -0.4193,-0.0493 -0.7346,-0.14996 -1.2732,-0.40645 -0.5716,-0.27218 -1.0592,-0.54614 -1.4579,-0.81913 -1.2325,-0.8436 -5.3146,-3.90499 -6.666,-4.99916 -0.3749,-0.30369 -0.4349,-0.36816 -0.5777,-0.62249 -0.1593,-0.28223 -0.3294,-0.66667 -0.4038,-0.90967 -0.059,-0.19479 -0.088,-0.36014 -0.086,-0.50804 0,-0.0821 0.1054,-0.73493 0.1397,-0.87237 0.1494,-0.59583 0.3339,-1.01284 0.6093,-1.37333 0.1936,-0.25343 0.4489,-0.46959 0.7243,-0.61357 0.2426,-0.12643 0.5879,-0.23228 0.7944,-0.24331 0.5736,-0.0304 1.5596,0.51064 4.0209,2.20664 0.804,0.55391 1.4942,1.0399 2.1952,1.54602 0.9973,0.71982 2.1085,1.57325 2.7776,2.13333 0.4661,0.38994 0.9211,0.80144 1.0696,0.96678 0.024,0.0252 0.054,0.0583 0.066,0.0738 0.025,0.0147 0.029,0.0321 0.032,0.037 0,0.005 0.034,0.0397 0.069,0.0772 0.034,0.0375 0.078,0.0877 0.098,0.11124 0.056,0.0684 0.1054,0.13011 0.1078,0.13526 0,0.002 0.024,0.0304 0.049,0.0617 0.064,0.0791 0.1471,0.21367 0.1838,0.30099 0.073,0.16834 0.1029,0.41667 0.083,0.73418 0,0.14873 -0.064,0.49537 -0.1053,0.65211 -0.1765,0.67579 -0.4477,1.23193 -0.8052,1.646 -0.2477,0.28692 -0.5616,0.50223 -0.8806,0.60392 -0.1961,0.0625 -0.3031,0.0787 -0.5425,0.0818 -0.1078,10e-4 -0.2107,10e-4 -0.2254,-6.9e-4 z m 3.8131,-3.01824 c -0.056,-0.0196 -0.076,-0.0328 -0.1078,-0.0649 -0.066,-0.0708 -0.1176,-0.18842 -0.1789,-0.40809 -0.044,-0.16147 -0.091,-0.29773 -0.1323,-0.39256 -0.1789,-0.40236 -0.4812,-0.78872 -1.0446,-1.3314 -0.6549,-0.63122 -1.5243,-1.35927 -3.3012,-2.76454 -1.4702,-1.16246 -2.3327,-1.87576 -2.8967,-2.39485 -0.223,-0.20509 -0.2749,-0.26078 -0.3244,-0.34659 -0.024,-0.0407 -0.061,-0.0968 -0.086,-0.12448 -0.1005,-0.12006 -0.1176,-0.1698 -0.076,-0.2362 0.098,-0.15755 0.7915,-0.25434 2.2587,-0.31481 0.346,-0.0147 1.862,-0.0196 2.2993,-0.01 2.8098,0.0728 4.2334,0.32698 5.0172,0.89608 0.2497,0.18132 0.4188,0.36723 0.5724,0.62933 0.1201,0.20681 0.1985,0.38964 0.271,0.64653 0.1544,0.54308 0.1911,0.94581 0.147,1.57327 -0.024,0.18892 -0.086,0.6812 -0.1323,0.89847 -0.1593,0.7502 -0.4175,1.47957 -0.7402,2.09838 -0.2377,0.4546 -0.5219,0.85392 -0.9277,1.30095 -0.1789,0.19602 -0.2401,0.2537 -0.3288,0.31006 -0.1054,0.0662 -0.1764,0.0745 -0.2889,0.0343 z"
       id="path397-3-7-3" /></g></svg>
